<svg
                width="247"
                height="91"
                viewBox="0 0 247 91"
                fill="none"
                xmlns="http://www.w3.org/2000/svg"
              >
                <path
                  d="M136.061 41.3927C58.7887 36.3563 25.5136 44.8599 3.17578 48.38C2.82862 51.3173 2.96047 53.7333 2.59075 58.4C62.486 38.9443 102.416 42.1416 136.016 43.381C136.03 43.0115 136.02 42.5011 136.061 41.3927Z"
                  fill="#FFB200"
                />
                <path
                  d="M10.032 9.92V18.32H21.312V23.648H10.032V32.528H22.752V38H3.312V4.448H22.752V9.92H10.032ZM27.1309 24.608C27.1309 21.92 27.6589 19.536 28.7149 17.456C29.8029 15.376 31.2589 13.776 33.0829 12.656C34.9389 11.536 37.0029 10.976 39.2749 10.976C41.2589 10.976 42.9869 11.376 44.4589 12.176C45.9629 12.976 47.1629 13.984 48.0589 15.2V11.408H54.8269V38H48.0589V34.112C47.1949 35.36 45.9949 36.4 44.4589 37.232C42.9549 38.032 41.2109 38.432 39.2269 38.432C36.9869 38.432 34.9389 37.856 33.0829 36.704C31.2589 35.552 29.8029 33.936 28.7149 31.856C27.6589 29.744 27.1309 27.328 27.1309 24.608ZM48.0589 24.704C48.0589 23.072 47.7389 21.68 47.0989 20.528C46.4589 19.344 45.5949 18.448 44.5069 17.84C43.4189 17.2 42.2509 16.88 41.0029 16.88C39.7549 16.88 38.6029 17.184 37.5469 17.792C36.4909 18.4 35.6269 19.296 34.9549 20.48C34.3149 21.632 33.9949 23.008 33.9949 24.608C33.9949 26.208 34.3149 27.616 34.9549 28.832C35.6269 30.016 36.4909 30.928 37.5469 31.568C38.6349 32.208 39.7869 32.528 41.0029 32.528C42.2509 32.528 43.4189 32.224 44.5069 31.616C45.5949 30.976 46.4589 30.08 47.0989 28.928C47.7389 27.744 48.0589 26.336 48.0589 24.704ZM71.5661 38.432C69.3901 38.432 67.4381 38.048 65.7101 37.28C63.9821 36.48 62.6061 35.408 61.5821 34.064C60.5901 32.72 60.0461 31.232 59.9501 29.6H66.7181C66.8461 30.624 67.3421 31.472 68.2061 32.144C69.1021 32.816 70.2061 33.152 71.5181 33.152C72.7981 33.152 73.7901 32.896 74.4941 32.384C75.2301 31.872 75.5981 31.216 75.5981 30.416C75.5981 29.552 75.1501 28.912 74.2541 28.496C73.3901 28.048 71.9981 27.568 70.0781 27.056C68.0941 26.576 66.4621 26.08 65.1821 25.568C63.9341 25.056 62.8461 24.272 61.9181 23.216C61.0221 22.16 60.5741 20.736 60.5741 18.944C60.5741 17.472 60.9901 16.128 61.8221 14.912C62.6861 13.696 63.9021 12.736 65.4701 12.032C67.0701 11.328 68.9421 10.976 71.0861 10.976C74.2541 10.976 76.7821 11.776 78.6701 13.376C80.5581 14.944 81.5981 17.072 81.7901 19.76H75.3581C75.2621 18.704 74.8141 17.872 74.0141 17.264C73.2461 16.624 72.2061 16.304 70.8941 16.304C69.6781 16.304 68.7341 16.528 68.0621 16.976C67.4221 17.424 67.1021 18.048 67.1021 18.848C67.1021 19.744 67.5501 20.432 68.4461 20.912C69.3421 21.36 70.7341 21.824 72.6221 22.304C74.5421 22.784 76.1261 23.28 77.3741 23.792C78.6221 24.304 79.6941 25.104 80.5901 26.192C81.5181 27.248 81.9981 28.656 82.0301 30.416C82.0301 31.952 81.5981 33.328 80.7341 34.544C79.9021 35.76 78.6861 36.72 77.0861 37.424C75.5181 38.096 73.6781 38.432 71.5661 38.432ZM90.9544 8.24C89.7704 8.24 88.7784 7.872 87.9784 7.136C87.2104 6.368 86.8264 5.424 86.8264 4.304C86.8264 3.184 87.2104 2.256 87.9784 1.52C88.7784 0.751998 89.7704 0.367998 90.9544 0.367998C92.1384 0.367998 93.1144 0.751998 93.8824 1.52C94.6824 2.256 95.0824 3.184 95.0824 4.304C95.0824 5.424 94.6824 6.368 93.8824 7.136C93.1144 7.872 92.1384 8.24 90.9544 8.24ZM94.2664 11.408V38H87.5464V11.408H94.2664ZM107.626 2.48V38H100.906V2.48H107.626ZM139.705 11.408L123.241 50.576H116.089L121.849 37.328L111.193 11.408H118.729L125.593 29.984L132.553 11.408H139.705Z"
                  fill="#FFB200"
                />
              </svg>